<svg xmlns="http://www.w3.org/2000/svg" version="1.1" width="130.7mm" height="102.7mm" viewBox = " 0 0 463.11061699999993 363.897937" >
<!-- Front--> 
<g transform="translate(22.5000185, 22.5000185) " > 
<polygon style="stroke:#000000; fill:none; stroke-width:0.354331" points="0, 0 18.566944399999997, 0 18.566944399999997, 10.62993 35.433099999999996, 10.62993 35.433099999999996, 0 50.456734399999995, 0 50.456734399999995, 10.62993 67.32289, 10.62993 67.32289, 0 85.8898344, 0 85.8898344, 15.0236344 75.2599044, 15.0236344 75.2599044, 28.34648 85.8898344, 28.34648 85.8898344, 43.3701144 75.2599044, 43.3701144 75.2599044, 56.69296 85.8898344, 56.69296 85.88983439999998, 71.71659439999999 67.32289, 71.71659439999999 67.32289, 61.08666439999999 50.456734399999995, 61.08666439999999 50.456734399999995, 71.71659439999999 35.433099999999996, 71.71659439999999 35.433099999999996, 61.08666439999999 18.566944399999997, 61.08666439999999 18.566944399999997, 71.71659439999999 0, 71.71659439999999 0, 56.69296 10.62993, 56.69296 10.62993, 43.3701144 0, 43.3701144 0, 28.34648 10.62993, 28.34648 10.62993, 15.0236344 0, 15.0236344 "/> 
 <rect x="21.6850572" y="27.7086842" width="41.6693256" height="15.448831599999998" rx="0" ry="0" style="stroke:#000000;stroke-width:0.354331;fill:none" /> 
</g>
<!-- Back--> 
<g transform="translate(108.38985289999998, 22.5000185) " > 
<polygon style="stroke:#000000; fill:none; stroke-width:0.354331" points="0, 0 18.566944399999997, 0 18.566944399999997, 10.62993 35.433099999999996, 10.62993 35.433099999999996, 0 50.456734399999995, 0 50.456734399999995, 10.62993 67.32289, 10.62993 67.32289, 0 85.8898344, 0 85.8898344, 15.0236344 75.2599044, 15.0236344 75.2599044, 28.34648 85.8898344, 28.34648 85.8898344, 43.3701144 75.2599044, 43.3701144 75.2599044, 56.69296 85.8898344, 56.69296 85.88983439999998, 71.71659439999999 67.32289, 71.71659439999999 67.32289, 61.08666439999999 50.456734399999995, 61.08666439999999 50.456734399999995, 71.71659439999999 35.433099999999996, 71.71659439999999 35.433099999999996, 61.08666439999999 18.566944399999997, 61.08666439999999 18.566944399999997, 71.71659439999999 0, 71.71659439999999 0, 56.69296 10.62993, 56.69296 10.62993, 43.3701144 0, 43.3701144 0, 28.34648 10.62993, 28.34648 10.62993, 15.0236344 0, 15.0236344 "/> 
</g>
<!-- Left--> 
<g transform="translate(194.27968729999998, 22.5000185) " > 
<polygon style="stroke:#000000; fill:none; stroke-width:0.354331" points="10.62993, 0 23.881909399999998, 0 23.881909399999998, 10.62993 46.06303, 10.62993 46.06303, 0 61.0866644, 0 61.0866644, 10.62993 74.40951, 10.62993 74.40951, 0 89.4331444, 0 89.4331444, 10.62993 102.75599, 10.62993 102.75599, 0 117.77962439999999, 0 117.77962439999999, 10.62993 131.10246999999998, 10.62993 131.10246999999998, 0 146.1261044, 0 146.1261044, 10.62993 159.44895, 10.62993 159.44895, 0 174.4725844, 0 174.4725844, 10.62993 187.79542999999998, 10.62993 187.79542999999998, 0 202.8190644, 0 202.8190644, 10.62993 225.000185, 10.62993 225.000185, 0 238.25216439999997, 0 238.25216439999997, 14.17324 248.88209439999997, 14.17324 248.88209439999997, 29.1968744 238.25216439999997, 29.1968744 238.25216439999997, 42.51972 248.88209439999997, 42.51972 248.88209439999997, 57.5433544 238.25216439999997, 57.5433544 238.2521644, 71.71659439999999 225.000185, 71.71659439999999 225.000185, 61.08666439999999 202.8190644, 61.08666439999999 202.8190644, 71.71659439999999 187.79542999999998, 71.71659439999999 187.79542999999998, 61.08666439999999 174.4725844, 61.08666439999999 174.4725844, 71.71659439999999 159.44895, 71.71659439999999 159.44895, 61.08666439999999 146.1261044, 61.08666439999999 146.1261044, 71.71659439999999 131.10246999999998, 71.71659439999999 131.10246999999998, 61.08666439999999 117.77962439999999, 61.08666439999999 117.77962439999999, 71.71659439999999 102.75599, 71.71659439999999 102.75599, 61.08666439999999 89.4331444, 61.08666439999999 89.4331444, 71.71659439999999 74.40951, 71.71659439999999 74.40951, 61.08666439999999 61.0866644, 61.08666439999999 61.0866644, 71.71659439999999 46.06303, 71.71659439999999 46.06303, 61.08666439999999 23.881909399999998, 61.08666439999999 23.881909399999998, 71.71659439999999 10.62993, 71.71659439999999 10.62993, 57.5433544 0, 57.5433544 0, 42.51972 10.62993, 42.51972 10.62993, 29.1968744 0, 29.1968744 0, 14.17324 10.62993, 14.17324 "/> 
</g>
<!-- Right--> 
<g transform="translate(194.27968729999998, 94.21661289999999) " > 
<polygon style="stroke:#000000; fill:none; stroke-width:0.354331" points="10.62993, 0 23.881909399999998, 0 23.881909399999998, 10.62993 46.06303, 10.62993 46.06303, 0 61.0866644, 0 61.0866644, 10.62993 74.40951, 10.62993 74.40951, 0 89.4331444, 0 89.4331444, 10.62993 102.75599, 10.62993 102.75599, 0 117.77962439999999, 0 117.77962439999999, 10.62993 131.10246999999998, 10.62993 131.10246999999998, 0 146.1261044, 0 146.1261044, 10.62993 159.44895, 10.62993 159.44895, 0 174.4725844, 0 174.4725844, 10.62993 187.79542999999998, 10.62993 187.79542999999998, 0 202.8190644, 0 202.8190644, 10.62993 225.000185, 10.62993 225.000185, 0 238.25216439999997, 0 238.25216439999997, 14.17324 248.88209439999997, 14.17324 248.88209439999997, 29.1968744 238.25216439999997, 29.1968744 238.25216439999997, 42.51972 248.88209439999997, 42.51972 248.88209439999997, 57.5433544 238.25216439999997, 57.5433544 238.2521644, 71.71659439999999 225.000185, 71.71659439999999 225.000185, 61.08666439999999 202.8190644, 61.08666439999999 202.8190644, 71.71659439999999 187.79542999999998, 71.71659439999999 187.79542999999998, 61.08666439999999 174.4725844, 61.08666439999999 174.4725844, 71.71659439999999 159.44895, 71.71659439999999 159.44895, 61.08666439999999 146.1261044, 61.08666439999999 146.1261044, 71.71659439999999 131.10246999999998, 71.71659439999999 131.10246999999998, 61.08666439999999 117.77962439999999, 61.08666439999999 117.77962439999999, 71.71659439999999 102.75599, 71.71659439999999 102.75599, 61.08666439999999 89.4331444, 61.08666439999999 89.4331444, 71.71659439999999 74.40951, 71.71659439999999 74.40951, 61.08666439999999 61.0866644, 61.08666439999999 61.0866644, 71.71659439999999 46.06303, 71.71659439999999 46.06303, 61.08666439999999 23.881909399999998, 61.08666439999999 23.881909399999998, 71.71659439999999 10.62993, 71.71659439999999 10.62993, 57.5433544 0, 57.5433544 0, 42.51972 10.62993, 42.51972 10.62993, 29.1968744 0, 29.1968744 0, 14.17324 10.62993, 14.17324 "/> 
</g>
<!-- Top--> 
<g transform="translate(22.5000185, 94.21661289999999) " > 
<polygon style="stroke:#000000; fill:none; stroke-width:0.354331" points="10.62993, 10.62993 17.716549999999998, 10.62993 17.716549999999998, 0 36.283494399999995, 0 36.283494399999995, 10.62993 49.606339999999996, 10.62993 49.606339999999996, 0 68.1732844, 0 68.1732844, 10.62993 75.2599044, 10.62993 75.2599044, 23.031515 85.8898344, 23.031515 85.8898344, 46.9134244 75.2599044, 46.9134244 75.2599044, 60.23627 85.8898344, 60.23627 85.8898344, 75.2599044 75.2599044, 75.2599044 75.2599044, 88.58275 85.8898344, 88.58275 85.8898344, 103.6063844 75.2599044, 103.6063844 75.2599044, 116.92922999999999 85.8898344, 116.92922999999999 85.8898344, 131.95286439999998 75.2599044, 131.95286439999998 75.2599044, 145.27571 85.8898344, 145.27571 85.8898344, 160.2993444 75.2599044, 160.2993444 75.2599044, 173.62219 85.8898344, 173.62219 85.8898344, 188.64582439999998 75.2599044, 188.64582439999998 75.2599044, 201.96867 85.8898344, 201.96867 85.8898344, 225.8505794 75.2599044, 225.8505794 75.25990439999998, 238.25216439999997 68.1732844, 238.25216439999997 68.1732844, 248.88209439999997 49.606339999999996, 248.88209439999997 49.606339999999996, 238.25216439999997 36.283494399999995, 238.25216439999997 36.283494399999995, 248.88209439999997 17.716549999999998, 248.88209439999997 17.716549999999998, 238.25216439999997 10.62993, 238.2521644 10.62993, 225.8505794 0, 225.8505794 0, 201.96867 10.62993, 201.96867 10.62993, 188.64582439999998 0, 188.64582439999998 0, 173.62219 10.62993, 173.62219 10.62993, 160.2993444 0, 160.2993444 0, 145.27571 10.62993, 145.27571 10.62993, 131.95286439999998 0, 131.95286439999998 0, 116.92922999999999 10.62993, 116.92922999999999 10.62993, 103.6063844 0, 103.6063844 0, 88.58275 10.62993, 88.58275 10.62993, 75.2599044 0, 75.2599044 0, 60.23627 10.62993, 60.23627 10.62993, 46.9134244 0, 46.9134244 0, 23.031515 10.62993, 23.031515 "/> 
</g>
<!-- Bottom--> 
<g transform="translate(108.38985289999998, 94.21661289999999) " > 
<polygon style="stroke:#000000; fill:none; stroke-width:0.354331" points="10.62993, 10.62993 17.716549999999998, 10.62993 17.716549999999998, 0 36.283494399999995, 0 36.283494399999995, 10.62993 49.606339999999996, 10.62993 49.606339999999996, 0 68.1732844, 0 68.1732844, 10.62993 75.2599044, 10.62993 75.2599044, 23.031515 85.8898344, 23.031515 85.8898344, 46.9134244 75.2599044, 46.9134244 75.2599044, 60.23627 85.8898344, 60.23627 85.8898344, 75.2599044 75.2599044, 75.2599044 75.2599044, 88.58275 85.8898344, 88.58275 85.8898344, 103.6063844 75.2599044, 103.6063844 75.2599044, 116.92922999999999 85.8898344, 116.92922999999999 85.8898344, 131.95286439999998 75.2599044, 131.95286439999998 75.2599044, 145.27571 85.8898344, 145.27571 85.8898344, 160.2993444 75.2599044, 160.2993444 75.2599044, 173.62219 85.8898344, 173.62219 85.8898344, 188.64582439999998 75.2599044, 188.64582439999998 75.2599044, 201.96867 85.8898344, 201.96867 85.8898344, 225.8505794 75.2599044, 225.8505794 75.25990439999998, 238.25216439999997 68.1732844, 238.25216439999997 68.1732844, 248.88209439999997 49.606339999999996, 248.88209439999997 49.606339999999996, 238.25216439999997 36.283494399999995, 238.25216439999997 36.283494399999995, 248.88209439999997 17.716549999999998, 248.88209439999997 17.716549999999998, 238.25216439999997 10.62993, 238.2521644 10.62993, 225.8505794 0, 225.8505794 0, 201.96867 10.62993, 201.96867 10.62993, 188.64582439999998 0, 188.64582439999998 0, 173.62219 10.62993, 173.62219 10.62993, 160.2993444 0, 160.2993444 0, 145.27571 10.62993, 145.27571 10.62993, 131.95286439999998 0, 131.95286439999998 0, 116.92922999999999 10.62993, 116.92922999999999 10.62993, 103.6063844 0, 103.6063844 0, 88.58275 10.62993, 88.58275 10.62993, 75.2599044 0, 75.2599044 0, 60.23627 10.62993, 60.23627 10.62993, 46.9134244 0, 46.9134244 0, 23.031515 10.62993, 23.031515 "/> 
</g></svg>